<svg xmlns="http://www.w3.org/2000/svg" xml:space="preserve" width="138mm" height="175mm" version="1.1" style="shape-rendering:geometricPrecision; text-rendering:geometricPrecision; image-rendering:optimizeQuality; fill-rule:evenodd; clip-rule:evenodd"
viewBox="0 0 13800 17500" xmlns:xlink="http://www.w3.org/1999/xlink" xmlns:xodm="http://www.corel.com/coreldraw/odm/2003">
  <metadata id="CorelCorpID_0Corel-Layer"/>
  <path class="fil0" d="M6970 0l-70 0 -6895 735 0 12670 6895 4095 6895 -4095 0 -12670 -6825 -735zm5950 12880l-6020 3570 -6020 -3570 0 -5180 5985 3570 0 630 -4095 -2450 0 630 4130 2485 0 665 -4130 -2450 0 630 4130 2450 4165 -2485 0 -2660 1855 -1120 0 5285zm-35 -5950l-1645 980 -770 455 -3605 -2135 0 630 3080 1855 -35 0 -70 35 -455 245 -2555 -1505 0 630 2030 1190 -490 315 -1505 -910 0 630 1015 595 -1015 595 -5950 -3535 5950 -3570 6020 3500zm35 -630l-6055 -3570 -5985 3570 0 -4760 6020 -630 6020 630 0 4760z"/>
</svg>
