<svg xmlns="http://www.w3.org/2000/svg" width="138mm" height="175mm" viewBox="0 0 13800 17500" shape-rendering="geometricPrecision" text-rendering="geometricPrecision" image-rendering="optimizeQuality" fill-rule="evenodd" clip-rule="evenodd"><path class="fil0" d="M6970 0h-70L5 735v12670l6895 4095 6895-4095V735L6970 0zm5950 12880l-6020 3570-6020-3570V7700l5985 3570v630L2770 9450v630l4130 2485v665l-4130-2450v630l4130 2450 4165-2485V8715l1855-1120v5285zm-35-5950l-1645 980-770 455-3605-2135v630l3080 1855h-35l-70 35-455 245-2555-1505v630l2030 1190-490 315-1505-910v630l1015 595-1015 595L915 7000l5950-3570 6020 3500zm35-630L6865 2730 880 6300V1540l6020-630 6020 630v4760z"/></svg>